<svg width="538" height="137" viewBox="0 0 538 137" fill="none" xmlns="http://www.w3.org/2000/svg">
<path d="M500.745 90.0111C489.64 90.0111 479.848 79.3441 479.848 68.0911C479.848 55.9621 490.223 46.1711 500.745 46.1711C513.02 46.1711 520.766 56.8391 520.766 67.9441C520.766 79.3441 512.143 90.0111 500.745 90.0111ZM500.745 29.2191C479.117 29.2191 463.628 46.3171 463.628 68.0911C463.628 90.0111 480.14 106.816 500.745 106.816C507.468 106.816 518.441 102.325 521.205 95.3361V98.5621C521.205 103.082 524.868 106.747 529.388 106.747C533.907 106.747 537.572 103.082 537.572 98.5621V67.9441C537.425 46.1711 520.182 29.2191 500.745 29.2191Z" fill="#010203"/>
<path d="M432.096 8.695V98.051C432.096 102.854 435.988 106.746 440.791 106.746C445.593 106.746 449.486 102.854 449.486 98.051V8.695C449.486 3.894 445.593 0 440.791 0C435.988 0 432.096 3.894 432.096 8.695Z" fill="#010203"/>
<path d="M359.856 60.1995C361.026 50.8465 371.254 43.9795 381.338 43.9795C392.006 43.9795 401.358 50.8465 402.528 60.1995H359.856ZM418.748 65.4605C418.748 44.7095 401.505 29.2195 381.338 29.2195C360.587 29.2195 344.366 46.3175 343.634 68.2375C343.634 90.4495 360.587 106.757 381.338 106.757C394.344 106.757 404.866 101.409 409.542 96.8795C409.741 96.6805 409.946 96.4595 410.154 96.2215C412.594 93.4205 412.543 89.2305 410.046 86.4805C407.716 83.9115 403.899 83.3195 400.909 85.0765C400.212 85.4865 399.563 85.8825 399.021 86.2115C394.344 89.1345 390.106 91.2675 381.338 91.2675C369.063 91.2675 361.026 82.7045 359.856 73.6445H411.003C417.433 73.6445 418.748 68.6765 418.748 65.4605Z" fill="#010203"/>
<path d="M334.451 29.219H328.313C320.129 29.219 314.138 34.187 311.946 40.033V37.448C311.946 32.888 308.249 29.191 303.689 29.191C299.129 29.191 295.432 32.888 295.432 37.448V98.577C295.432 103.137 299.129 106.833 303.689 106.833C308.249 106.833 311.946 103.137 311.946 98.577V68.968C311.946 57.716 318.376 45.439 330.944 45.439H334.451C339.128 45.439 342.634 42.079 342.634 37.111C342.634 33.019 339.128 29.219 334.451 29.219Z" fill="#010203"/>
<path d="M246.244 90.0111C235.139 90.0111 225.639 79.3441 225.639 68.0911C225.639 55.9621 235.722 46.1711 246.244 46.1711C258.666 46.1711 266.557 56.8391 266.557 68.0911C266.557 79.3441 257.789 90.0111 246.244 90.0111ZM246.244 29.2191C224.909 29.2191 209.272 46.3171 209.418 68.0911L209.803 127.927C209.833 132.505 213.552 136.199 218.129 136.199C222.752 136.199 226.488 132.435 226.456 127.813L226.224 95.9441C227.759 103.399 239.522 106.816 246.244 106.816C266.996 106.816 283.363 90.0111 283.363 68.0911C283.363 46.3171 266.119 29.2191 246.244 29.2191Z" fill="#010203"/>
<path d="M169.453 29.191C159.991 29.191 150.389 33.603 144.252 44.27C143.667 42.079 136.718 29.191 121.374 29.191C112.421 29.191 103.513 33.972 99.8929 40.91V36.953C99.8929 32.635 96.3919 29.135 92.0739 29.135C87.7549 29.135 84.2559 32.635 84.2559 36.953V98.796C84.2559 103.235 87.8539 106.833 92.2929 106.833H92.7319C97.1709 106.833 100.769 103.235 100.769 98.796V61.369C100.769 53.624 107.638 46.17 116.698 46.17C126.488 46.17 132.041 53.624 132.041 61.222V98.796C132.041 103.235 135.641 106.833 140.08 106.833H140.663C145.103 106.833 148.701 103.235 148.701 98.796V61.222C148.701 53.624 154.77 45.732 165.068 45.732C175.152 45.732 180.413 53.624 180.413 61.369V98.796C180.413 103.235 184.011 106.833 188.45 106.833C192.889 106.833 196.487 103.235 196.487 98.796V61.661C196.487 36.525 183.043 29.191 169.453 29.191Z" fill="#010203"/>
<path d="M36.826 90.0111C48.371 90.0111 57.139 79.3441 57.139 68.0911C57.139 56.8391 49.394 46.1711 36.826 46.1711C26.304 46.1711 16.221 55.9621 16.221 68.0911C16.221 79.3441 25.721 90.0111 36.826 90.0111ZM36.826 29.2191C56.701 29.3651 73.798 46.3171 73.798 68.0911C73.798 90.0111 57.578 106.816 36.826 106.816C16.513 106.816 0 90.0111 0 68.0911C0 46.3171 15.491 29.2191 36.826 29.2191Z" fill="#010203"/>
</svg>
