<svg width="188" height="34" viewBox="0 0 188 34" fill="none" xmlns="http://www.w3.org/2000/svg">
<path d="M186.019 16.779C186.019 15.859 185.451 15.317 184.422 15.317C182.202 15.317 179.685 17.917 178.711 20.866C183.095 20.433 185.992 18.755 186.019 16.78V16.779ZM175.842 23.707C175.842 18.943 180.254 14.287 184.504 14.287C186.479 14.287 187.698 15.289 187.698 16.832C187.698 19.376 183.962 21.325 178.468 21.704C178.358 22.202 178.304 22.71 178.305 23.22C178.305 25.358 179.387 26.604 181.201 26.604C182.446 26.604 183.881 26.009 185.234 24.899L184.882 26.144C183.662 27.449 181.959 28.193 180.173 28.201C177.493 28.201 175.842 26.468 175.842 23.708" fill="#010203"/>
<path d="M143.692 14.6936H146.371C146.507 17.4006 146.696 19.8366 146.967 22.9476L147.21 25.4386C150.43 20.6746 151.812 18.5096 154.004 14.6926H155.953L146.749 27.8476H145.181L143.692 14.6936Z" fill="#010203"/>
<path d="M158.726 10.3633C158.732 9.40834 159.505 8.63534 160.459 8.63034C161.176 8.58434 161.793 9.12934 161.839 9.84534C161.841 9.89134 161.842 9.93734 161.84 9.98334C161.805 10.9423 161.013 11.6983 160.053 11.6883C159.338 11.7053 158.745 11.1403 158.727 10.4243C158.727 10.4033 158.727 10.3823 158.727 10.3613L158.726 10.3633ZM155.911 21.4063L156.019 21.0003C156.723 18.5653 157.21 16.5603 157.643 14.6933H160.269L158.347 21.4063C157.563 24.1403 157.048 26.0883 156.669 27.8213H153.908C154.53 26.0613 155.126 24.1403 155.911 21.4063Z" fill="#010203"/>
<path d="M163.654 24.9249C163.654 26.2779 164.304 27.0359 165.441 27.0359C168.337 27.0359 172.424 21.7849 172.424 18.2389C172.424 16.7229 171.72 15.9379 170.637 15.9379C167.931 15.9379 163.654 21.4599 163.654 24.9249ZM174.862 17.9419C174.862 22.6249 169.773 28.1459 165.658 28.1459C164.224 28.1459 163.276 27.4699 162.897 26.1429L162.167 28.7149H159.785C160.407 26.9019 161.084 24.7899 161.815 22.2999L164.17 14.2069C164.928 11.6069 165.442 9.63193 165.821 7.79193H168.446C167.499 11.2569 166.47 14.3949 164.143 20.7299H164.305C166.498 16.5339 169.069 14.2879 171.641 14.2879C173.617 14.2879 174.86 15.6409 174.86 17.9419" fill="#010203"/>
<path d="M131.484 25.107C129.462 25.107 127.677 23.164 127.677 21.114C127.677 18.905 129.567 17.121 131.484 17.121C133.72 17.121 135.131 19.064 135.131 21.087C135.131 23.164 133.56 25.107 131.484 25.107ZM131.484 14.033C127.544 14.033 124.723 17.148 124.723 21.114C124.723 25.107 127.731 28.169 131.484 28.169C132.709 28.169 134.707 27.351 135.211 26.077V26.666C135.211 27.489 135.879 28.156 136.702 28.156C137.525 28.155 138.192 27.489 138.192 26.666V21.088C138.166 17.121 135.024 14.033 131.484 14.033Z" fill="#010203"/>
<path d="M105.822 19.6739C106.035 17.9699 107.898 16.7189 109.735 16.7189C111.679 16.7189 113.382 17.9699 113.595 19.6739H105.822ZM116.548 20.6349C116.548 16.8559 113.407 14.0319 109.733 14.0319C105.953 14.0319 102.998 17.1459 102.865 21.1389C102.77 24.9179 105.757 28.0589 109.536 28.1529C109.602 28.1549 109.667 28.1559 109.733 28.1549C112.102 28.1549 114.019 27.1809 114.87 26.3559C114.907 26.3199 114.944 26.2799 114.982 26.2359C115.465 25.6779 115.405 24.8339 114.847 24.3509C114.415 23.9759 113.792 23.9179 113.298 24.2059C113.171 24.2809 113.053 24.3529 112.954 24.4119C112.01 25.0609 110.88 25.3839 109.735 25.3329C107.804 25.4129 106.121 24.0319 105.822 22.1229H115.139C116.31 22.1229 116.55 21.2179 116.55 20.6319" fill="#010203"/>
<path d="M101.192 14.0333H100.074C98.766 14.0013 97.576 14.7873 97.093 16.0033V15.5323C97.093 14.7013 96.419 14.0283 95.589 14.0283C94.758 14.0283 94.085 14.7013 94.085 15.5323V26.6673C94.085 27.4983 94.758 28.1713 95.589 28.1713C96.419 28.1713 97.093 27.4983 97.093 26.6673V21.2743C97.093 19.2243 98.264 16.9883 100.553 16.9883H101.192C101.991 17.0133 102.659 16.3863 102.684 15.5873C102.685 15.5483 102.685 15.5093 102.683 15.4703C102.661 14.6653 101.998 14.0263 101.192 14.0333Z" fill="#010203"/>
<path d="M118.979 10.2953V26.5723C118.993 27.4473 119.714 28.1443 120.589 28.1303C121.443 28.1163 122.133 27.4273 122.147 26.5723V10.2953C122.132 9.42033 121.412 8.72333 120.537 8.73733C119.682 8.75133 118.993 9.44033 118.979 10.2953Z" fill="#010203"/>
<path d="M120.562 3.02595C116.558 3.02795 112.854 5.14895 110.828 8.60295L112.367 8.43795C117.815 7.86095 123.309 7.86095 128.757 8.43795L130.297 8.60295C128.27 5.14895 124.566 3.02795 120.562 3.02595ZM106.239 12.129C106.239 12.129 107.573 6.12595 112.06 2.80395C114.517 0.976952 117.5 -0.00604746 120.562 0.00195254C123.631 -0.0500475 126.627 0.937952 129.064 2.80395C133.303 6.14295 134.886 12.129 134.886 12.129L128.439 11.445C123.202 10.891 117.922 10.891 112.686 11.445L106.239 12.129Z" fill="#010203"/>
<path d="M85.1257 25.1073C83.1037 25.1073 81.3727 23.1643 81.3727 21.1143C81.3727 18.9053 83.2097 17.1213 85.1257 17.1213C87.3887 17.1213 88.8257 19.0643 88.8257 21.1143C88.8257 23.1643 87.2287 25.1073 85.1257 25.1073ZM85.1247 14.0333C81.2387 14.0333 78.3897 17.1483 78.4167 21.1143L78.4867 32.0133C78.4927 32.8513 79.1757 33.5263 80.0137 33.5203C80.8517 33.5143 81.5257 32.8303 81.5197 31.9933L81.4787 26.1883C81.7587 27.5463 83.9007 28.1693 85.1257 28.1693C88.9057 28.1693 91.8877 25.1073 91.8877 21.1143C91.8877 17.1483 88.7457 14.0333 85.1257 14.0333" fill="#010203"/>
<path d="M71.136 14.0287C69.214 14.0207 67.447 15.0787 66.545 16.7757C65.825 15.1127 64.189 14.0347 62.377 14.0287C60.746 14.0287 59.123 14.8997 58.463 16.1637V15.4427C58.482 14.6567 57.86 14.0037 57.074 13.9847C56.287 13.9657 55.635 14.5877 55.616 15.3737C55.615 15.3967 55.615 15.4197 55.616 15.4427V26.7097C55.616 27.5187 56.271 28.1737 57.08 28.1737H57.16C57.968 28.1737 58.624 27.5187 58.624 26.7097V19.8897C58.686 18.3357 59.969 17.1107 61.525 17.1217C63.014 17.0677 64.265 18.2317 64.319 19.7217C64.32 19.7687 64.321 19.8157 64.32 19.8637V26.7077C64.32 27.5167 64.976 28.1717 65.784 28.1717H65.89C66.699 28.1717 67.354 27.5167 67.354 26.7077V19.8637C67.379 18.2797 68.683 17.0147 70.267 17.0397C70.29 17.0397 70.313 17.0407 70.336 17.0417C71.846 17.0077 73.099 18.2047 73.133 19.7147C73.134 19.7727 73.133 19.8317 73.131 19.8897V26.7067C73.131 27.5157 73.787 28.1707 74.595 28.1707C75.404 28.1707 76.059 27.5157 76.059 26.7067V19.9437C76.059 15.3647 73.61 14.0287 71.135 14.0287" fill="#010203"/>
<path d="M46.977 25.107C49.082 25.107 50.677 23.164 50.677 21.114C50.677 19.064 49.266 17.121 46.977 17.121C45.06 17.121 43.224 18.904 43.224 21.114C43.224 23.164 44.954 25.107 46.977 25.107ZM46.977 14.033C50.597 14.06 53.712 17.148 53.712 21.114C53.712 25.107 50.757 28.169 46.977 28.169C43.277 28.169 40.269 25.107 40.269 21.114C40.269 17.148 43.091 14.033 46.977 14.033Z" fill="#010203"/>
<path d="M34.0237 16.779C34.0237 15.859 33.4557 15.317 32.4267 15.317C30.2077 15.317 27.6897 17.917 26.7157 20.866C31.1007 20.433 33.9967 18.755 34.0237 16.78V16.779ZM23.8457 23.707C23.8457 18.943 28.2577 14.287 32.5077 14.287C34.4837 14.287 35.7017 15.289 35.7017 16.832C35.7017 19.376 31.9667 21.325 26.4717 21.704C26.3627 22.202 26.3077 22.71 26.3087 23.22C26.3087 25.358 27.3917 26.604 29.2057 26.604C30.4507 26.604 31.8857 26.009 33.2387 24.899L32.8867 26.144C31.6667 27.449 29.9627 28.193 28.1767 28.201C25.4977 28.201 23.8467 26.468 23.8467 23.708" fill="#010203"/>
<path d="M0.325 24.2212L2.707 15.8302L0 15.8572L0.325 14.6932L3.059 14.7202L4.169 10.7952L6.794 9.98322L5.441 14.7202L8.851 14.6932L8.527 15.8572L5.142 15.8302L2.707 24.3292C2.274 25.8452 2.79 26.6302 4.006 26.6302C4.649 26.6162 5.275 26.4302 5.82 26.0892L5.549 27.1442C4.798 27.7492 3.86 28.0742 2.896 28.0652C0.785 28.0652 -0.323 26.4682 0.325 24.2212Z" fill="#010203"/>
<path d="M19.0555 14.2875C21.0045 14.2875 22.1685 15.3975 22.1685 17.2655C22.1365 18.0975 21.9725 18.9195 21.6805 19.7005L20.9235 21.9745C20.2455 23.8835 19.7025 25.8365 19.2985 27.8215H16.4845C17.2685 25.6825 17.8375 23.8695 18.4335 22.0845L19.2725 19.5945C19.5155 18.9615 19.6615 18.2955 19.7055 17.6185C19.7055 16.5365 19.0825 15.9135 17.9185 15.9135C15.8885 15.9135 13.8045 18.1605 12.2615 22.0855C11.5755 23.9535 11.0325 25.8715 10.6375 27.8215H7.87646C8.41846 26.3055 8.87746 24.8175 9.82546 21.6505L11.9905 14.1805C12.6475 12.0795 13.1985 9.94748 13.6415 7.79248H16.2675C15.2395 11.5545 14.0755 14.9925 11.9365 20.7305H12.0995C13.9935 16.5625 16.4025 14.2885 19.0555 14.2885" fill="#010203"/>
</svg>
