<svg width="87" height="85" viewBox="0 0 87 85" fill="none" xmlns="http://www.w3.org/2000/svg">
<path d="M38.4502 31.0627V80.1877C38.4502 82.8287 40.5902 84.9687 43.2302 84.9687C45.8702 84.9687 48.0112 82.8287 48.0112 80.1877V31.0627C48.0112 28.4227 45.8702 26.2827 43.2302 26.2827C40.5902 26.2827 38.4502 28.4227 38.4502 31.0627Z" fill="#010203"/>
<path d="M43.229 9.124C35.881 9.124 28.886 11.428 23.001 15.786C19.248 18.566 16.155 22.014 13.85 25.955L18.496 25.463C34.907 23.723 51.55 23.723 67.962 25.462L72.609 25.955C70.304 22.014 67.212 18.566 63.457 15.786C57.573 11.428 50.578 9.124 43.229 9.124ZM0 36.598C0 36.598 4.028 18.481 17.571 8.454C25.039 2.925 33.911 0 43.229 0C52.547 0 61.588 2.703 68.887 8.454C81.68 18.533 86.46 36.598 86.46 36.598L67 34.535C51.227 32.864 35.231 32.864 19.458 34.535L0 36.598Z" fill="#010203"/>
</svg>
